<svg xmlns="http://www.w3.org/2000/svg" version="1.1" xmlns:xlink="http://www.w3.org/1999/xlink" xmlns:svgjs="http://svgjs.dev/svgjs" width="128" height="128" viewBox="0 0 128 128"><g transform="matrix(0.8046875,0,0,0.8046875,12.221578124999994,18.097025426962205)"><svg viewBox="0 0 96 86" data-background-color="#046380" preserveAspectRatio="xMidYMid meet" height="114" width="128" xmlns="http://www.w3.org/2000/svg" xmlns:xlink="http://www.w3.org/1999/xlink"><g id="tight-bounds" transform="matrix(1,0,0,1,0.25950000000000273,0.0335500000000053)"><svg viewBox="0 0 95.481 85.93289999999999" height="85.93289999999999" width="95.481"><g><svg viewBox="0 0 95.481 85.93289999999999" height="85.93289999999999" width="95.481"><g><svg viewBox="0 0 95.481 85.93289999999999" height="85.93289999999999" width="95.481"><g id="textblocktransform"><svg viewBox="0 0 95.481 85.93289999999999" height="85.93289999999999" width="95.481" id="textblock"><g><svg viewBox="0 0 95.481 85.93289999999999" height="85.93289999999999" width="95.481"><g><svg viewBox="0 0 95.481 85.93289999999999" height="85.93289999999999" width="95.481"><g><svg xmlns:dc="http://purl.org/dc/elements/1.1/" xmlns:cc="http://creativecommons.org/ns#" xmlns:rdf="http://www.w3.org/1999/02/22-rdf-syntax-ns#" xmlns:svg="http://www.w3.org/2000/svg" xmlns="http://www.w3.org/2000/svg" xmlns:sodipodi="http://sodipodi.sourceforge.net/DTD/sodipodi-0.dtd" xmlns:inkscape="http://www.inkscape.org/namespaces/inkscape" xml:space="preserve" version="1.0" style="" viewBox="5 8.5 90 81" x="0" y="0" fill-rule="evenodd" height="85.93289999999999" width="95.481" class="icon-icon-0" data-fill-palette-color="accent" id="icon-0"><path d="M11.796 8.5C15.544 8.5 18.592 11.902 18.592 16.155 18.592 20.357 15.544 23.809 11.796 23.809S5 20.407 5 16.155C5 11.952 8.048 8.5 11.796 8.5" fill="#ffffff" data-fill-palette-color="accent"></path><path d="M7.399 62.333V86.098C7.399 87.949 8.948 89.5 10.797 89.5H12.846C14.695 89.5 16.244 87.949 16.244 86.098V62.333H18.592V38.57L22.79 42.77C23.59 43.571 24.74 43.871 25.788 43.721H26.038C26.338 43.672 26.638 43.522 26.938 43.372L38.68 36.568C40.281 35.617 40.831 33.565 39.931 31.914 38.98 30.314 36.932 29.764 35.283 30.664L25.788 36.167 17.343 27.862C15.844 26.412 14.095 25.06 11.846 25.06 8.098 25.06 5.05 28.112 5.05 31.864V62.384H7.399z" fill="#ffffff" data-fill-palette-color="accent"></path><path d="M59.17 42.671L71.363 39.42 77.26 33.515 77.21 33.165C76.66 29.463 79.259 26.011 82.957 25.46 86.655 24.91 90.103 27.512 90.652 31.214L95 61.433 92.701 61.783V86.098C92.701 87.949 91.152 89.5 89.303 89.5H87.254C85.405 89.5 83.856 87.949 83.856 86.098V63.084L81.557 63.434 78.46 41.92 75.811 44.572C75.36 45.122 74.76 45.522 74.06 45.723L60.92 49.225C59.119 49.725 57.27 48.625 56.77 46.824S57.371 43.17 59.17 42.67" fill="#ffffff" data-fill-palette-color="accent"></path><path d="M78.61 9.4C74.86 9.4 71.812 12.804 71.812 17.056 71.813 21.258 74.86 24.71 78.609 24.71S85.405 21.308 85.405 17.055C85.405 12.853 82.357 9.401 78.61 9.401" fill="#ffffff" data-fill-palette-color="accent"></path><rect class="" x="38.631317" y="66.836006" width="22.587452" height="22.613958" rx="4.4975014" ry="4.502779" fill="#ffffff" data-fill-palette-color="accent"></rect><path class="" d="M43.129 41.97H56.67C57.021 41.97 57.321 42.02 57.671 42.07 56.02 43.072 55.122 45.124 55.67 47.075 56.322 49.475 58.822 50.926 61.22 50.276V60.032C61.219 62.533 59.169 64.535 56.72 64.535H43.18C40.68 64.535 38.68 62.483 38.68 60.032V46.473C38.681 43.972 40.731 41.971 43.18 41.971z" fill="#ffffff" data-fill-palette-color="accent"></path><path class="" d="M27.388 22.459L39.08 15.554C41.23 14.304 44.028 15.004 45.278 17.155L52.174 28.863C53.424 31.013 52.724 33.816 50.574 35.066L38.882 41.971C36.932 43.12 34.534 42.62 33.134 40.97L39.231 37.468C41.38 36.218 42.129 33.415 40.881 31.264 39.63 29.113 36.831 28.362 34.683 29.613L28.487 33.215 25.838 28.662C24.59 26.512 25.288 23.71 27.438 22.46z" fill="#ffffff" data-fill-palette-color="accent"></path></svg></g></svg></g></svg></g></svg></g></svg></g><g></g></svg></g><defs></defs></svg><rect width="95.481" height="85.93289999999999" fill="none" stroke="none" visibility="hidden"></rect></g></svg></g></svg>