<svg xmlns="http://www.w3.org/2000/svg" version="1.1" xmlns:xlink="http://www.w3.org/1999/xlink" xmlns:svgjs="http://svgjs.dev/svgjs" width="1500" height="924" viewBox="0 0 1500 924"><g transform="matrix(1,0,0,1,-0.9090909090909918,-0.8487528018249577)"><svg viewBox="0 0 396 244" data-background-color="#046380" preserveAspectRatio="xMidYMid meet" height="924" width="1500" xmlns="http://www.w3.org/2000/svg" xmlns:xlink="http://www.w3.org/1999/xlink"><g id="tight-bounds" transform="matrix(1,0,0,1,0.2400000000000091,0.22412952775464134)"><svg viewBox="0 0 395.52 243.55174094449072" height="243.55174094449072" width="395.52"><g><svg viewBox="0 0 395.52 243.55174094449072" height="243.55174094449072" width="395.52"><g transform="matrix(1,0,0,1,0,179.00148889791666)"><svg viewBox="0 0 395.52 64.55025204657406" height="64.55025204657406" width="395.52"><g id="textblocktransform"><svg viewBox="0 0 395.52 64.55025204657406" height="64.55025204657406" width="395.52" id="textblock"><g><rect width="75.54432" height="3.8593498513326034" y="56.794747701566216" fill="#ffffff" data-fill-palette-color="tertiary"></rect><rect width="75.54432" height="3.8593498513326034" y="56.794747701566216" x="319.97568" fill="#ffffff" data-fill-palette-color="tertiary"></rect></g><g><svg viewBox="0 0 395.52 42.795583125868454" height="42.795583125868454" width="395.52"><g transform="matrix(1,0,0,1,0,0)"><svg width="395.52" viewBox="-0.6 -36.45999999577501 431.76000000000005 46.72110027701501" height="42.795583125868454" data-palette-color="#ffffff"><path d="M0.3 0.15L0.3 0.15Q-0.2 0.15-0.4-0.2-0.6-0.55-0.6-0.95L-0.6-0.95Q-0.55-1.8-0.2-1.9 0.15-2 0.65-2L0.65-2Q2-2 2.7-2.55 3.4-3.1 3.83-4 4.25-4.9 4.65-5.85L4.65-5.85 13.4-26.55Q13.9-27.75 13.6-28.38 13.3-29 12.6-29.28 11.9-29.55 11.05-29.7L11.05-29.7Q10.3-29.85 10.05-29.98 9.8-30.1 9.8-30.85L9.8-30.85Q9.8-31.7 10.4-31.78 11-31.85 11.8-31.85L11.8-31.85Q13.85-31.85 15.3-31.45 16.75-31.05 17.8-29.93 18.85-28.8 19.75-26.55L19.75-26.55 28.15-5.85Q28.5-5 28.9-4.1 29.3-3.2 29.98-2.63 30.65-2.05 31.7-2L31.7-2Q32.25-2 32.58-1.9 32.9-1.8 32.95-0.95L32.95-0.95Q32.95-0.55 32.73-0.2 32.5 0.15 32.05 0.15L32.05 0.15Q30.45 0.05 29.25 0.03 28.05 0 26.55 0L26.55 0Q23.6 0 20.35 0.15L20.35 0.15Q19.85 0.15 19.65-0.2 19.45-0.55 19.45-0.95L19.45-0.95Q19.5-1.8 19.85-1.9 20.2-2 20.7-2L20.7-2Q23.15-2 23.38-2.9 23.6-3.8 22.9-5.85L22.9-5.85 21.2-10 8.85-10Q8.1-8.1 7.78-7.25 7.45-6.4 7.38-6.15 7.3-5.9 7.25-5.85L7.25-5.85Q6.7-4.15 6.68-3.33 6.65-2.5 7.48-2.25 8.3-2 10.25-2L10.25-2Q10.8-2 11.13-1.9 11.45-1.8 11.5-0.95L11.5-0.95Q11.5-0.55 11.28-0.2 11.05 0.15 10.6 0.15L10.6 0.15Q9 0.05 7.83 0.03 6.65 0 5.15 0L5.15 0Q4.15 0 3.48 0.03 2.8 0.05 2.1 0.08 1.4 0.1 0.3 0.15ZM15.1-25L9.8-12.15 20.3-12.15 15.25-25 15.1-25ZM32.6 0.15L32.6 0.15Q32.25 0.15 32.02-0.18 31.8-0.5 31.8-0.85L31.8-0.85Q31.85-1.6 32.17-1.68 32.5-1.75 32.95-1.75L32.95-1.75Q34.35-1.75 34.87-2.23 35.4-2.7 35.47-3.5 35.55-4.3 35.55-5.15L35.55-5.15 35.55-29.55Q35.55-30.45 35.47-31.23 35.4-32 34.9-32.48 34.4-32.95 33-32.95L33-32.95Q32.55-32.95 32.17-33.08 31.8-33.2 31.8-33.95L31.8-33.95Q31.8-34.7 32.6-34.85L32.6-34.85Q34.9-35.2 36.12-35.55 37.35-35.9 38-36.15 38.65-36.4 39.15-36.45L39.15-36.45Q39.55-36.5 39.82-36.3 40.1-36.1 40.1-35.5L40.1-35.5 40.1-5.15Q40.1-4.3 40.17-3.5 40.25-2.7 40.77-2.23 41.3-1.75 42.7-1.75L42.7-1.75Q43.15-1.75 43.47-1.68 43.8-1.6 43.85-0.85L43.85-0.85Q43.85-0.5 43.65-0.18 43.45 0.15 43.05 0.15L43.05 0.15Q41.6 0.05 40.37 0.03 39.15 0 37.8 0L37.8 0Q36.45 0 35.25 0.03 34.05 0.05 32.6 0.15ZM56.65 0.6L56.65 0.6Q53.25 0.6 51.25-1.45 49.25-3.5 49.25-6.85L49.25-6.85 49.25-16.1Q49.25-17 49.17-17.78 49.1-18.55 48.6-19.03 48.1-19.5 46.7-19.5L46.7-19.5Q46.25-19.5 45.87-19.63 45.5-19.75 45.5-20.5L45.5-20.5Q45.5-21.25 46.3-21.4L46.3-21.4Q48.6-21.75 49.82-22.1 51.05-22.45 51.7-22.7 52.35-22.95 52.85-23L52.85-23Q53.25-23.05 53.52-22.85 53.8-22.65 53.8-22.05L53.8-22.05 53.8-6.9Q53.8-5.25 54.52-4.2 55.25-3.15 56.35-2.65 57.45-2.15 58.6-2.15L58.6-2.15Q60.35-2.15 61.65-2.78 62.95-3.4 63.75-4.23 64.55-5.05 64.8-5.6L64.8-5.6 64.8-16.1Q64.8-17 64.72-17.78 64.65-18.55 64.15-19.03 63.65-19.5 62.25-19.5L62.25-19.5Q61.8-19.5 61.42-19.63 61.05-19.75 61.05-20.5L61.05-20.5Q61.05-21.25 61.84-21.4L61.84-21.4Q64.15-21.75 65.37-22.1 66.59-22.45 67.25-22.7 67.9-22.95 68.4-23L68.4-23Q68.8-23.05 69.07-22.85 69.34-22.65 69.34-22.05L69.34-22.05 69.34-4.75Q69.34-1.8 73.3-1.8L73.3-1.8Q73.84-1.8 74-1.5 74.15-1.2 74.15-0.85L74.15-0.85Q74.15-0.15 73.3 0L73.3 0 65.25 0.55Q64.9 0.55 64.84 0.25 64.8-0.05 64.8-0.45L64.8-0.45 64.8-3.25 64.7-3.25Q63.75-2.35 62.67-1.45 61.59-0.55 60.17 0.03 58.75 0.6 56.65 0.6ZM76.94 0.15L76.94 0.15Q76.59 0.15 76.37-0.18 76.14-0.5 76.14-0.85L76.14-0.85Q76.19-1.6 76.52-1.68 76.84-1.75 77.29-1.75L77.29-1.75Q78.69-1.75 79.22-2.23 79.74-2.7 79.82-3.5 79.89-4.3 79.89-5.15L79.89-5.15 79.89-16.6Q79.89-17.5 79.82-18.28 79.74-19.05 79.24-19.53 78.74-20 77.34-20L77.34-20Q76.89-20 76.52-20.13 76.14-20.25 76.14-21L76.14-21Q76.14-21.75 76.94-21.9L76.94-21.9Q79.24-22.25 80.47-22.6 81.69-22.95 82.32-23.2 82.94-23.45 83.44-23.5L83.44-23.5Q83.84-23.55 84.12-23.35 84.39-23.15 84.39-22.55L84.39-22.55 84.39-19.4 84.54-19.4Q85.54-20.35 86.49-21.23 87.44-22.1 88.79-22.68 90.14-23.25 92.24-23.25L92.24-23.25Q94.69-23.25 96.44-22.23 98.19-21.2 98.99-19.4L98.99-19.4 99.09-19.4Q100.09-20.35 101.19-21.23 102.29-22.1 103.79-22.68 105.29-23.25 107.39-23.25L107.39-23.25Q110.79-23.25 112.79-21.2 114.79-19.15 114.79-15.8L114.79-15.8 114.79-5.15Q114.79-4.3 114.87-3.5 114.94-2.7 115.47-2.23 115.99-1.75 117.39-1.75L117.39-1.75Q117.84-1.75 118.17-1.68 118.49-1.6 118.54-0.85L118.54-0.85Q118.54-0.5 118.34-0.18 118.14 0.15 117.74 0.15L117.74 0.15Q116.29 0.05 115.07 0.03 113.84 0 112.49 0L112.49 0Q111.14 0 109.94 0.03 108.74 0.05 107.29 0.15L107.29 0.15Q106.89 0.15 106.69-0.18 106.49-0.5 106.49-0.85L106.49-0.85Q106.54-1.6 106.87-1.68 107.19-1.75 107.64-1.75L107.64-1.75Q109.04-1.75 109.57-2.23 110.09-2.7 110.17-3.5 110.24-4.3 110.24-5.15L110.24-5.15 110.24-15.75Q110.24-17.4 109.52-18.45 108.79-19.5 107.69-20 106.59-20.5 105.44-20.5L105.44-20.5Q103.74-20.5 102.54-19.88 101.34-19.25 100.64-18.45 99.94-17.65 99.64-17.05L99.64-17.05 99.64-5.15Q99.64-4.3 99.67-3.5 99.69-2.7 100.17-2.23 100.64-1.75 102.04-1.75L102.04-1.75Q102.54-1.75 102.84-1.68 103.14-1.6 103.19-0.85L103.19-0.85Q103.19-0.5 102.99-0.18 102.79 0.15 102.39 0.15L102.39 0.15Q100.94 0.05 99.79 0.03 98.64 0 97.29 0L97.29 0Q95.99 0 94.87 0.03 93.74 0.05 92.29 0.15L92.29 0.15Q91.89 0.15 91.69-0.18 91.49-0.5 91.49-0.85L91.49-0.85Q91.54-1.6 91.84-1.68 92.14-1.75 92.64-1.75L92.64-1.75Q94.04-1.75 94.52-2.23 94.99-2.7 95.02-3.5 95.04-4.3 95.04-5.15L95.04-5.15 95.04-15.75Q95.04-18.25 93.54-19.38 92.04-20.5 90.29-20.5L90.29-20.5Q88.54-20.5 87.34-19.88 86.14-19.25 85.44-18.45 84.74-17.65 84.44-17.05L84.44-17.05 84.44-5.15Q84.44-4.3 84.52-3.5 84.59-2.7 85.12-2.23 85.64-1.75 87.04-1.75L87.04-1.75Q87.49-1.75 87.82-1.68 88.14-1.6 88.19-0.85L88.19-0.85Q88.19-0.5 87.99-0.18 87.79 0.15 87.39 0.15L87.39 0.15Q85.94 0.05 84.72 0.03 83.49 0 82.14 0L82.14 0Q80.79 0 79.59 0.03 78.39 0.05 76.94 0.15ZM122.34 0.15L122.34 0.15Q121.84 0.15 121.64-0.2 121.44-0.55 121.44-0.95L121.44-0.95Q121.49-1.8 121.84-1.9 122.19-2 122.69-2L122.69-2Q124.29-2 124.92-2.58 125.54-3.15 125.69-4.03 125.84-4.9 125.84-5.85L125.84-5.85 125.94-25.7Q125.94-28.05 125.14-28.7 124.34-29.35 122.59-29.7L122.59-29.7Q121.84-29.85 121.59-29.98 121.34-30.1 121.34-30.85L121.34-30.85Q121.34-31.7 121.94-31.78 122.54-31.85 123.34-31.85L123.34-31.85Q126.14-31.85 127.87-31.4 129.59-30.95 130.92-29.8 132.24-28.65 133.79-26.55L133.79-26.55 147.49-8.55 147.64-8.55 147.54-25.7Q147.54-26.65 147.39-27.53 147.24-28.4 146.62-28.98 145.99-29.55 144.39-29.55L144.39-29.55Q143.89-29.55 143.54-29.65 143.19-29.75 143.09-30.6L143.09-30.6Q143.09-31 143.31-31.35 143.54-31.7 143.99-31.7L143.99-31.7Q145.09-31.65 145.77-31.63 146.44-31.6 147.12-31.58 147.79-31.55 148.79-31.55L148.79-31.55Q149.79-31.55 150.44-31.58 151.09-31.6 151.77-31.63 152.44-31.65 153.49-31.7L153.49-31.7Q153.99-31.7 154.19-31.35 154.39-31 154.39-30.6L154.39-30.6Q154.34-29.75 154.02-29.65 153.69-29.55 153.14-29.55L153.14-29.55Q151.59-29.55 150.94-28.98 150.29-28.4 150.17-27.53 150.04-26.65 149.99-25.7L149.99-25.7 149.89-0.5Q149.84-0.1 149.42 0.03 148.99 0.15 148.64 0.15L148.64 0.15Q147.69 0.15 147.19-0.5L147.19-0.5 128.34-25.7 128.19-25.7 128.29-5.85Q128.34-4.9 128.47-4.03 128.59-3.15 129.24-2.58 129.89-2 131.44-2L131.44-2Q131.99-2 132.34-1.9 132.69-1.8 132.74-0.95L132.74-0.95Q132.74-0.55 132.52-0.2 132.29 0.15 131.84 0.15L131.84 0.15Q130.79 0.1 130.06 0.08 129.34 0.05 128.67 0.03 127.99 0 126.99 0L126.99 0Q125.99 0 125.37 0.03 124.74 0.05 124.09 0.08 123.44 0.1 122.34 0.15ZM166.99 0.6L166.99 0.6Q163.14 0.6 160.51-1.05 157.89-2.7 156.59-5.45 155.29-8.2 155.29-11.45L155.29-11.45Q155.29-13.65 156.06-15.73 156.84-17.8 158.29-19.53 159.74-21.25 161.79-22.25 163.84-23.25 166.44-23.25L166.44-23.25Q171.04-23.25 173.36-20.88 175.69-18.5 176.04-14.85L176.04-14.85Q176.04-13.1 175.06-12.55 174.09-12 172.54-12L172.54-12 160.39-12Q160.39-9.1 161.19-6.83 161.99-4.55 163.71-3.23 165.44-1.9 168.29-1.9L168.29-1.9Q170.39-1.9 171.89-2.8 173.39-3.7 174.79-5.95L174.79-5.95Q175.19-6.45 175.89-6L175.89-6Q176.29-5.8 176.39-5.38 176.49-4.95 176.29-4.65L176.29-4.65Q174.74-2.2 172.39-0.8 170.04 0.6 166.99 0.6ZM160.39-13.9L160.39-13.9 168.54-13.9Q169.74-13.9 170.46-14.38 171.19-14.85 171.24-16L171.24-16Q171.24-18.15 170.06-19.83 168.89-21.5 166.44-21.5L166.44-21.5Q163.94-21.5 162.26-19.5 160.59-17.5 160.39-13.9ZM189.14 0.85L189.14 0.85Q187.64 0.85 186.28 0.1 184.94-0.65 184.06-2.2 183.19-3.75 183.19-6.1L183.19-6.1 183.19-20.8 180.28-20.7Q179.94-20.7 179.76-20.98 179.59-21.25 179.59-21.6L179.59-21.6Q179.59-22.6 180.28-22.75L180.28-22.75Q182.14-23.1 183.09-23.93 184.03-24.75 184.56-25.9 185.09-27.05 185.53-28.4L185.53-28.4Q185.69-28.8 185.99-28.93 186.28-29.05 186.64-29.05L186.64-29.05Q186.94-29.05 187.31-28.9 187.69-28.75 187.69-28.35L187.69-28.35 187.34-22.65 193.19-23Q193.64-23.05 193.78-22.75 193.94-22.45 193.94-22.05L193.94-22.05Q193.94-21.55 193.76-21.05 193.59-20.55 193.34-20.55L193.34-20.55 187.74-20.7 187.74-5.5Q187.74-4.05 188.36-2.85 188.99-1.65 190.64-1.65L190.64-1.65Q191.19-1.65 191.89-1.75 192.59-1.85 193.39-2.2L193.39-2.2Q193.59-2.3 193.78-2.38 193.99-2.45 194.19-2.45L194.19-2.45Q194.59-2.45 194.78-2.13 194.99-1.8 195.14-1.45L195.14-1.45Q195.28-1 194.89-0.75L194.89-0.75Q193.34 0.25 192.03 0.55 190.74 0.85 189.14 0.85ZM211.48 0.15L211.48 0.15Q210.98 0.15 210.78-0.2 210.58-0.55 210.58-0.95L210.58-0.95Q210.63-1.8 210.98-1.9 211.33-2 211.83-2L211.83-2Q213.43-2 214.08-2.58 214.73-3.15 214.91-4.03 215.08-4.9 215.08-5.85L215.08-5.85 215.08-25.65Q215.08-26.6 214.91-27.5 214.73-28.4 214.08-28.98 213.43-29.55 211.83-29.55L211.83-29.55Q211.33-29.55 210.98-29.65 210.63-29.75 210.58-30.6L210.58-30.6Q210.58-31 210.78-31.35 210.98-31.7 211.48-31.7L211.48-31.7Q213.08-31.65 214.5-31.6 215.93-31.55 217.43-31.55L217.43-31.55 226.03-31.55Q230.08-31.5 232.61-30.3 235.13-29.1 236.28-27.25 237.43-25.4 237.43-23.4L237.43-23.4Q237.43-20.75 235.31-18.4 233.18-16.05 229.33-15.05L229.33-15.05Q231.23-12.05 233.18-9.03 235.13-6 237.68-3.35L237.68-3.35Q238.38-2.8 239.06-2.45 239.73-2.1 240.68-2L240.68-2Q241.08-1.95 241.48-1.88 241.88-1.8 241.93-0.95L241.93-0.95Q241.93-0.55 241.73-0.2 241.53 0.15 241.03 0.15L241.03 0.15Q239.98 0.1 239.36 0.08 238.73 0.05 238.13 0.03 237.53 0 236.53 0L236.53 0Q234.48-0.4 233.06-1.45 231.63-2.5 230.28-4.35L230.28-4.35Q228.88-6.25 227.68-8.2 226.48-10.15 225.33-12L225.33-12Q224.68-13.05 224-13.53 223.33-14 221.48-14L221.48-14 220.03-14 220.03-5.85Q220.08-4.9 220.23-4.03 220.38-3.15 221.06-2.58 221.73-2 223.28-2L223.28-2Q223.78-2 224.13-1.9 224.48-1.8 224.53-0.95L224.53-0.95Q224.53-0.55 224.33-0.2 224.13 0.15 223.63 0.15L223.63 0.15Q220.43 0 217.38 0L217.38 0Q215.88 0 214.48 0.03 213.08 0.05 211.48 0.15ZM220.03-25.55L220.03-15.95 224.43-15.95Q226.98-15.95 228.46-16.65 229.93-17.35 230.68-18.45 231.43-19.55 231.66-20.75 231.88-21.95 231.88-22.95L231.88-22.95Q231.88-24.6 231.16-26.15 230.43-27.7 228.61-28.7 226.78-29.7 223.53-29.7L223.53-29.7Q221.38-29.7 220.71-28.88 220.03-28.05 220.03-25.55L220.03-25.55ZM249.88 0.6L249.88 0.6Q246.83 0.6 245-1.15 243.18-2.9 243.18-5.35L243.18-5.35Q243.18-7.9 244.5-9.35 245.83-10.8 248-11.5 250.18-12.2 252.75-12.45 255.33-12.7 257.78-12.85L257.78-12.85 257.78-16.8Q257.78-19.15 256.6-20.48 255.43-21.8 252.63-21.8L252.63-21.8Q251.23-21.8 250-20.9 248.78-20 248.78-18.3L248.78-18.3Q248.78-17.5 249.18-16.95 249.58-16.4 249.98-16.1 250.38-15.8 250.38-15.7L250.38-15.7Q250.38-15.5 249.8-14.98 249.23-14.45 248.23-14.45L248.23-14.45Q246.68-14.45 245.83-15.6 244.98-16.75 244.98-18.15L244.98-18.15Q244.98-20.05 246.15-21.15 247.33-22.25 249.18-22.75 251.03-23.25 252.93-23.25L252.93-23.25Q255.18-23.25 257.3-22.7 259.43-22.15 260.8-20.6 262.18-19.05 262.18-15.95L262.18-15.95 262.18-4.3Q262.23-3.8 262.43-3.1 262.63-2.4 263.2-1.88 263.78-1.35 264.78-1.35L264.78-1.35Q265.13-1.35 265.33-1.23 265.53-1.1 265.53-0.55L265.53-0.55Q265.53-0.1 265.03 0.15 264.53 0.4 263.88 0.5 263.23 0.6 262.78 0.6L262.78 0.6Q260.93 0.6 259.48-0.48 258.03-1.55 257.78-3.45L257.78-3.45Q256.68-1.45 254.5-0.43 252.33 0.6 249.88 0.6ZM251.48-2.1L251.48-2.1Q253.18-2.1 254.6-2.95 256.03-3.8 256.9-5.28 257.78-6.75 257.78-8.55L257.78-8.55 257.78-11.4Q252.63-11.05 250.43-9.75 248.23-8.45 248.23-5.5L248.23-5.5Q248.23-2.1 251.48-2.1ZM268.43 10.25L268.43 10.25Q267.78 10.35 267.43 9.55L267.43 9.55Q267.38 9.15 267.4 8.83 267.43 8.5 267.83 8.35L267.83 8.35Q270.28 7.3 271.38 5.38 272.48 3.45 272.8 0.48 273.13-2.5 273.13-6.55L273.13-6.55 273.13-16.6Q273.13-17.5 273.05-18.28 272.98-19.05 272.48-19.53 271.98-20 270.58-20L270.58-20Q270.13-20 269.75-20.13 269.38-20.25 269.38-21L269.38-21Q269.38-21.75 270.18-21.9L270.18-21.9Q272.48-22.25 273.7-22.6 274.93-22.95 275.58-23.2 276.23-23.45 276.73-23.5L276.73-23.5Q277.13-23.55 277.4-23.35 277.68-23.15 277.68-22.55L277.68-22.55 277.68-4.95Q277.68-1.2 276.85 1.95 276.03 5.1 274 7.25 271.98 9.4 268.43 10.25ZM275.03-29.05L275.03-29.05Q273.63-29.05 272.68-29.93 271.73-30.8 271.73-32.1L271.73-32.1Q271.73-33.25 272.88-34.15 274.03-35.05 275.48-35.05L275.48-35.05Q276.73-35.05 277.53-34.18 278.33-33.3 278.33-31.95L278.33-31.95Q278.33-30.75 277.38-29.9 276.43-29.05 275.03-29.05ZM289.92 0.6L289.92 0.6Q286.87 0.6 285.05-1.15 283.22-2.9 283.22-5.35L283.22-5.35Q283.22-7.9 284.55-9.35 285.87-10.8 288.05-11.5 290.22-12.2 292.8-12.45 295.37-12.7 297.82-12.85L297.82-12.85 297.82-16.8Q297.82-19.15 296.65-20.48 295.47-21.8 292.67-21.8L292.67-21.8Q291.27-21.8 290.05-20.9 288.82-20 288.82-18.3L288.82-18.3Q288.82-17.5 289.22-16.95 289.62-16.4 290.02-16.1 290.42-15.8 290.42-15.7L290.42-15.7Q290.42-15.5 289.85-14.98 289.27-14.45 288.27-14.45L288.27-14.45Q286.72-14.45 285.87-15.6 285.02-16.75 285.02-18.15L285.02-18.15Q285.02-20.05 286.2-21.15 287.37-22.25 289.22-22.75 291.07-23.25 292.97-23.25L292.97-23.25Q295.22-23.25 297.35-22.7 299.47-22.15 300.85-20.6 302.22-19.05 302.22-15.95L302.22-15.95 302.22-4.3Q302.27-3.8 302.47-3.1 302.67-2.4 303.25-1.88 303.82-1.35 304.82-1.35L304.82-1.35Q305.17-1.35 305.37-1.23 305.57-1.1 305.57-0.55L305.57-0.55Q305.57-0.1 305.07 0.15 304.57 0.4 303.92 0.5 303.27 0.6 302.82 0.6L302.82 0.6Q300.97 0.6 299.52-0.48 298.07-1.55 297.82-3.45L297.82-3.45Q296.72-1.45 294.55-0.43 292.37 0.6 289.92 0.6ZM291.52-2.1L291.52-2.1Q293.22-2.1 294.65-2.95 296.07-3.8 296.95-5.28 297.82-6.75 297.82-8.55L297.82-8.55 297.82-11.4Q292.67-11.05 290.47-9.75 288.27-8.45 288.27-5.5L288.27-5.5Q288.27-2.1 291.52-2.1ZM317.47 0.6L317.47 0.6Q313.62 0.6 311.05-0.78 308.47-2.15 308.47-4.75L308.47-4.75Q308.47-6.2 309.35-7.1 310.22-8 311.62-8L311.62-8Q312.52-8 313.1-7.53 313.67-7.05 313.67-6.85L313.67-6.85Q313.67-6.7 313.1-6.18 312.52-5.65 312.52-4.5L312.52-4.5Q312.52-3.1 313.85-2.18 315.17-1.25 317.87-1.25L317.87-1.25Q320.22-1.25 321.55-2.27 322.87-3.3 322.87-5.15L322.87-5.15Q322.87-6.65 321.9-7.48 320.92-8.3 319.4-8.8 317.87-9.3 316.15-9.8 314.42-10.3 312.87-11.05 311.32-11.8 310.35-13.13 309.37-14.45 309.37-16.65L309.37-16.65Q309.37-18.9 310.72-20.35 312.07-21.8 314.17-22.53 316.27-23.25 318.42-23.25L318.42-23.25Q320.27-23.25 321.92-22.73 323.57-22.2 324.65-21.15 325.72-20.1 325.72-18.5L325.72-18.5Q325.72-17.25 324.92-16.25 324.12-15.25 322.72-15.25L322.72-15.25Q321.82-15.25 321.25-15.73 320.67-16.2 320.67-16.4L320.67-16.4Q320.67-16.5 321.05-16.78 321.42-17.05 321.77-17.53 322.12-18 322.12-18.75L322.12-18.75Q322.02-20.2 320.72-20.9 319.42-21.6 317.82-21.6L317.82-21.6Q316.07-21.6 314.57-20.75 313.07-19.9 313.07-18.3L313.07-18.3Q313.07-16.85 313.7-16.05 314.32-15.25 315.7-14.68 317.07-14.1 319.27-13.4L319.27-13.4Q321.47-12.7 323.15-11.95 324.82-11.2 325.75-9.98 326.67-8.75 326.67-6.65L326.67-6.65Q326.67-4.55 325.47-2.9 324.27-1.25 322.2-0.33 320.12 0.6 317.47 0.6ZM339.52 0.85L339.52 0.85Q338.02 0.85 336.67 0.1 335.32-0.65 334.44-2.2 333.57-3.75 333.57-6.1L333.57-6.1 333.57-20.8 330.67-20.7Q330.32-20.7 330.14-20.98 329.97-21.25 329.97-21.6L329.97-21.6Q329.97-22.6 330.67-22.75L330.67-22.75Q332.52-23.1 333.47-23.93 334.42-24.75 334.94-25.9 335.47-27.05 335.92-28.4L335.92-28.4Q336.07-28.8 336.37-28.93 336.67-29.05 337.02-29.05L337.02-29.05Q337.32-29.05 337.69-28.9 338.07-28.75 338.07-28.35L338.07-28.35 337.72-22.65 343.57-23Q344.02-23.05 344.17-22.75 344.32-22.45 344.32-22.05L344.32-22.05Q344.32-21.55 344.14-21.05 343.97-20.55 343.72-20.55L343.72-20.55 338.12-20.7 338.12-5.5Q338.12-4.05 338.74-2.85 339.37-1.65 341.02-1.65L341.02-1.65Q341.57-1.65 342.27-1.75 342.97-1.85 343.77-2.2L343.77-2.2Q343.97-2.3 344.17-2.38 344.37-2.45 344.57-2.45L344.57-2.45Q344.97-2.45 345.17-2.13 345.37-1.8 345.52-1.45L345.52-1.45Q345.67-1 345.27-0.75L345.27-0.75Q343.72 0.25 342.42 0.55 341.12 0.85 339.52 0.85ZM349.62 0.15L349.62 0.15Q349.22 0.15 349.02-0.18 348.81-0.5 348.81-0.85L348.81-0.85Q348.87-1.6 349.19-1.68 349.52-1.75 349.97-1.75L349.97-1.75Q351.37-1.75 351.89-2.23 352.42-2.7 352.49-3.5 352.56-4.3 352.56-5.15L352.56-5.15 352.56-29.55Q352.56-30.45 352.49-31.23 352.42-32 351.92-32.48 351.42-32.95 350.02-32.95L350.02-32.95Q349.56-32.95 349.19-33.08 348.81-33.2 348.81-33.95L348.81-33.95Q348.81-34.7 349.62-34.85L349.62-34.85Q351.92-35.2 353.14-35.55 354.37-35.9 355.02-36.18 355.67-36.45 356.17-36.45L356.17-36.45Q356.56-36.45 356.84-36.27 357.12-36.1 357.12-35.5L357.12-35.5 357.12-19.4 357.22-19.4Q358.22-20.35 359.27-21.23 360.31-22.1 361.74-22.68 363.17-23.25 365.27-23.25L365.27-23.25Q368.67-23.25 370.67-21.2 372.67-19.15 372.67-15.8L372.67-15.8 372.67-5.15Q372.67-4.3 372.74-3.5 372.81-2.7 373.34-2.23 373.87-1.75 375.22-1.75L375.22-1.75Q375.72-1.75 376.02-1.68 376.31-1.6 376.37-0.85L376.37-0.85Q376.37-0.5 376.19-0.18 376.02 0.15 375.62 0.15L375.62 0.15Q374.17 0.05 372.92 0.03 371.67 0 370.37 0L370.37 0Q369.02 0 367.81 0.03 366.62 0.05 365.17 0.15L365.17 0.15Q364.77 0.15 364.56-0.18 364.37-0.5 364.37-0.85L364.37-0.85Q364.42-1.6 364.72-1.68 365.02-1.75 365.52-1.75L365.52-1.75Q366.92-1.75 367.44-2.23 367.97-2.7 368.02-3.5 368.06-4.3 368.06-5.15L368.06-5.15 368.06-15.75Q368.06-18.25 366.56-19.38 365.06-20.5 363.31-20.5L363.31-20.5Q361.62-20.5 360.31-19.88 359.02-19.25 358.22-18.45 357.42-17.65 357.12-17.05L357.12-17.05 357.12-5.15Q357.12-4.3 357.19-3.5 357.27-2.7 357.79-2.23 358.31-1.75 359.67-1.75L359.67-1.75Q360.17-1.75 360.47-1.68 360.77-1.6 360.81-0.85L360.81-0.85Q360.81-0.5 360.64-0.18 360.47 0.15 360.06 0.15L360.06 0.15Q358.62 0.05 357.37 0.03 356.12 0 354.81 0L354.81 0Q353.47 0 352.27 0.03 351.06 0.05 349.62 0.15ZM385.51 0.6L385.51 0.6Q382.46 0.6 380.64-1.15 378.81-2.9 378.81-5.35L378.81-5.35Q378.81-7.9 380.14-9.35 381.46-10.8 383.64-11.5 385.81-12.2 388.39-12.45 390.96-12.7 393.41-12.85L393.41-12.85 393.41-16.8Q393.41-19.15 392.24-20.48 391.06-21.8 388.26-21.8L388.26-21.8Q386.86-21.8 385.64-20.9 384.41-20 384.41-18.3L384.41-18.3Q384.41-17.5 384.81-16.95 385.21-16.4 385.61-16.1 386.01-15.8 386.01-15.7L386.01-15.7Q386.01-15.5 385.44-14.98 384.86-14.45 383.86-14.45L383.86-14.45Q382.31-14.45 381.46-15.6 380.61-16.75 380.61-18.15L380.61-18.15Q380.61-20.05 381.79-21.15 382.96-22.25 384.81-22.75 386.66-23.25 388.56-23.25L388.56-23.25Q390.81-23.25 392.94-22.7 395.06-22.15 396.44-20.6 397.81-19.05 397.81-15.95L397.81-15.95 397.81-4.3Q397.86-3.8 398.06-3.1 398.26-2.4 398.84-1.88 399.41-1.35 400.41-1.35L400.41-1.35Q400.76-1.35 400.96-1.23 401.16-1.1 401.16-0.55L401.16-0.55Q401.16-0.1 400.66 0.15 400.16 0.4 399.51 0.5 398.86 0.6 398.41 0.6L398.41 0.6Q396.56 0.6 395.11-0.48 393.66-1.55 393.41-3.45L393.41-3.45Q392.31-1.45 390.14-0.43 387.96 0.6 385.51 0.6ZM387.11-2.1L387.11-2.1Q388.81-2.1 390.24-2.95 391.66-3.8 392.54-5.28 393.41-6.75 393.41-8.55L393.41-8.55 393.41-11.4Q388.26-11.05 386.06-9.75 383.86-8.45 383.86-5.5L383.86-5.5Q383.86-2.1 387.11-2.1ZM404.36 0.15L404.36 0.15Q404.01 0.15 403.79-0.18 403.56-0.5 403.56-0.85L403.56-0.85Q403.66-1.6 403.96-1.68 404.26-1.75 404.76-1.75L404.76-1.75Q406.16-1.75 406.66-2.23 407.16-2.7 407.24-3.5 407.31-4.3 407.31-5.15L407.31-5.15 407.31-16.6Q407.31-17.5 407.24-18.28 407.16-19.05 406.66-19.53 406.16-20 404.76-20L404.76-20Q404.31-20 403.94-20.13 403.56-20.25 403.56-21L403.56-21Q403.56-21.75 404.36-21.9L404.36-21.9Q406.66-22.25 407.89-22.6 409.11-22.95 409.74-23.2 410.36-23.45 410.86-23.5L410.86-23.5Q411.26-23.55 411.54-23.35 411.81-23.15 411.81-22.55L411.81-22.55 411.81-19.4 411.96-19.4Q412.96-20.35 414.01-21.23 415.06-22.1 416.49-22.68 417.91-23.25 420.01-23.25L420.01-23.25Q423.41-23.25 425.41-21.2 427.41-19.15 427.41-15.8L427.41-15.8 427.41-5.15Q427.41-4.3 427.49-3.5 427.56-2.7 428.09-2.23 428.61-1.75 430.01-1.75L430.01-1.75Q430.46-1.75 430.79-1.68 431.11-1.6 431.16-0.85L431.16-0.85Q431.16-0.5 430.96-0.18 430.76 0.15 430.36 0.15L430.36 0.15Q428.91 0.05 427.69 0.03 426.46 0 425.11 0L425.11 0Q423.76 0 422.56 0.03 421.36 0.05 419.91 0.15L419.91 0.15Q419.56 0.15 419.34-0.18 419.11-0.5 419.11-0.85L419.11-0.85Q419.16-1.6 419.49-1.68 419.81-1.75 420.26-1.75L420.26-1.75Q421.66-1.75 422.19-2.23 422.71-2.7 422.79-3.5 422.86-4.3 422.86-5.15L422.86-5.15 422.86-15.75Q422.86-17.4 422.14-18.45 421.41-19.5 420.31-20 419.21-20.5 418.06-20.5L418.06-20.5Q416.36-20.5 415.06-19.88 413.76-19.25 412.96-18.45 412.16-17.65 411.86-17.05L411.86-17.05 411.86-5.15Q411.86-4.3 411.94-3.5 412.01-2.7 412.54-2.23 413.06-1.75 414.46-1.75L414.46-1.75Q414.91-1.75 415.24-1.68 415.56-1.6 415.61-0.85L415.61-0.85Q415.61-0.5 415.41-0.18 415.21 0.15 414.81 0.15L414.81 0.15Q413.36 0.05 412.14 0.03 410.91 0 409.56 0L409.56 0Q408.21 0 407.01 0.03 405.81 0.05 404.36 0.15Z" opacity="1" transform="matrix(1,0,0,1,0,0)" fill="#ffffff" class="wordmark-text-0" data-fill-palette-color="primary" id="text-0"></path></svg></g></svg></g><g transform="matrix(1,0,0,1,75.54432,52.898593207890976)"><svg viewBox="0 0 244.43135999999998 11.651658838683085" height="11.651658838683085" width="244.43135999999998"><g transform="matrix(1,0,0,1,8,0)"><svg width="228.43135999999998" viewBox="3.85 -37.35 970.35 49.50000000000001" height="11.651658838683085" data-palette-color="#ffffff"><path d="M3.85 0L3.85-36.75 19.95-36.75 19.95-31.85 9.4-31.85 9.4-21.7 17.9-21.7 17.9-16.7 9.4-16.7 9.4-4.95 21.6-4.95 21.6 0 3.85 0ZM26.9 0L26.9-22.95 32.3-22.95 32.3-18.8Q33.4-21.15 35.52-22.35 37.65-23.55 40.4-23.55L40.4-23.55Q46.55-23.5 47.95-19.3L47.95-19.3Q49.05-21.25 51.25-22.4 53.45-23.55 55.9-23.55L55.9-23.55Q59.5-23.55 61.35-22.18 63.2-20.8 63.82-18.28 64.45-15.75 64.45-11.5L64.45-11.5 64.45 0 59 0 59-11.55Q59-15.6 58.17-17.35 57.35-19.1 55-19.1L55-19.1Q51.85-19.1 50.22-16.98 48.6-14.85 48.6-11.4L48.6-11.4 48.6 0 43.2 0 43.2-12.35Q43.2-15 43-16.3 42.8-17.6 41.9-18.35 41-19.1 39-19.1L39-19.1Q37.25-19.1 35.72-18.05 34.2-17 33.27-15.23 32.35-13.45 32.35-11.4L32.35-11.4 32.35 0 26.9 0ZM71.45 12.15L71.45-22.95 76.64-22.95 76.64-18.7Q79.4-23.55 85.25-23.55L85.25-23.55Q90.09-23.55 93.09-20.48 96.09-17.4 96.09-11.6L96.09-11.6Q96.09-8 94.62-5.25 93.15-2.5 90.62-1 88.09 0.5 85 0.5L85 0.5Q82.09 0.5 79.97-0.53 77.84-1.55 76.64-3.45L76.64-3.45 76.7 12.15 71.45 12.15ZM83.75-4.05Q87-4.05 88.75-6.13 90.5-8.2 90.5-11.45L90.5-11.45Q90.5-14.85 88.77-16.88 87.05-18.9 83.75-18.9L83.75-18.9Q81.95-18.9 80.37-18.03 78.8-17.15 77.87-15.53 76.95-13.9 76.95-11.75L76.95-11.75 76.95-11.4Q76.95-9.25 77.87-7.58 78.8-5.9 80.34-4.98 81.9-4.05 83.75-4.05L83.75-4.05ZM112.54 0.5Q108.99 0.5 106.24-1.1 103.49-2.7 101.99-5.45 100.49-8.2 100.49-11.55L100.49-11.55Q100.49-14.85 101.97-17.6 103.44-20.35 106.19-21.95 108.94-23.55 112.54-23.55L112.54-23.55Q116.14-23.55 118.87-21.95 121.59-20.35 123.07-17.6 124.54-14.85 124.54-11.55L124.54-11.55Q124.54-8.2 123.04-5.45 121.54-2.7 118.82-1.1 116.09 0.5 112.54 0.5L112.54 0.5ZM112.69-3.9Q115.59-3.9 117.27-6.05 118.94-8.2 118.94-11.45L118.94-11.45Q118.94-14.7 117.14-16.93 115.34-19.15 112.39-19.15L112.39-19.15Q109.54-19.15 107.82-16.95 106.09-14.75 106.09-11.45L106.09-11.45Q106.09-8.25 107.94-6.08 109.79-3.9 112.69-3.9L112.69-3.9ZM151.09 0L144.29-12.75 137.49 0 136.54 0 126.89-22.95 132.69-22.95 137.64-9.6 144.19-22.95 144.39-22.95 150.99-9.7 155.94-22.95 161.64-22.95 152.04 0 151.09 0ZM175.59 0.5Q171.49 0.5 168.74-1.13 165.99-2.75 164.69-5.48 163.39-8.2 163.39-11.45L163.39-11.45Q163.39-15.1 164.91-17.85 166.44-20.6 169.14-22.08 171.84-23.55 175.24-23.55L175.24-23.55Q180.54-23.55 183.11-20.63 185.69-17.7 185.69-12.4L185.69-12.4Q185.69-11.05 185.54-9.6L185.54-9.6 169.04-9.6Q169.59-6.55 171.21-5.2 172.84-3.85 175.74-3.85L175.74-3.85Q178.14-3.85 179.69-4.25 181.24-4.65 182.54-5.35L182.54-5.35 184.19-1.5Q182.94-0.7 180.79-0.1 178.64 0.5 175.59 0.5L175.59 0.5ZM169.04-13.35L180.44-13.35Q180.49-16.45 179.09-17.73 177.69-19 175.09-19L175.09-19Q169.84-19 169.04-13.35L169.04-13.35ZM191.19 0L191.19-22.95 196.59-22.95 196.59-18.45Q197.39-20.75 199.19-22.15 200.99-23.55 203.29-23.55L203.29-23.55Q204.89-23.55 205.49-23.25L205.49-23.25 204.74-17.8Q204.29-18.1 202.79-18.1L202.79-18.1Q200.44-18.1 198.51-16.6 196.59-15.1 196.59-11.8L196.59-11.8 196.59 0 191.19 0ZM238.58 0.35Q232.88 0.35 228.71-2.2 224.53-4.75 222.33-9.03 220.13-13.3 220.13-18.45L220.13-18.45Q220.13-23.9 222.51-28.2 224.88-32.5 229.18-34.93 233.48-37.35 238.93-37.35L238.93-37.35Q241.38-37.35 243.51-36.83 245.63-36.3 247.03-35.63 248.43-34.95 248.88-34.5L248.88-34.5 246.43-29.5Q243.38-32.2 238.48-32.2L238.48-32.2Q235.03-32.2 232.23-30.5 229.43-28.8 227.83-25.65 226.23-22.5 226.23-18.35L226.23-18.35Q226.23-14.55 227.66-11.45 229.08-8.35 231.83-6.55 234.58-4.75 238.38-4.75L238.38-4.75Q242.78-4.75 246.88-7.25L246.88-7.25 248.53-2.5Q247.43-1.5 244.51-0.58 241.58 0.35 238.58 0.35L238.58 0.35ZM264.68 0.5Q261.13 0.5 258.38-1.1 255.63-2.7 254.13-5.45 252.63-8.2 252.63-11.55L252.63-11.55Q252.63-14.85 254.1-17.6 255.58-20.35 258.33-21.95 261.08-23.55 264.68-23.55L264.68-23.55Q268.28-23.55 271-21.95 273.73-20.35 275.2-17.6 276.68-14.85 276.68-11.55L276.68-11.55Q276.68-8.2 275.18-5.45 273.68-2.7 270.95-1.1 268.23 0.5 264.68 0.5L264.68 0.5ZM264.83-3.9Q267.73-3.9 269.4-6.05 271.08-8.2 271.08-11.45L271.08-11.45Q271.08-14.7 269.28-16.93 267.48-19.15 264.53-19.15L264.53-19.15Q261.68-19.15 259.95-16.95 258.23-14.75 258.23-11.45L258.23-11.45Q258.23-8.25 260.08-6.08 261.93-3.9 264.83-3.9L264.83-3.9ZM282.43 0L282.43-22.95 287.73-22.95 287.77-18.75Q288.73-20.85 290.77-22.2 292.82-23.55 295.57-23.55L295.57-23.55Q299.13-23.55 301.02-22.08 302.93-20.6 303.57-17.95 304.23-15.3 304.23-11.05L304.23-11.05 304.23 0 298.82 0 298.82-10.9Q298.82-15.25 297.98-17.18 297.13-19.1 294.48-19.1L294.48-19.1Q292.98-19.1 291.43-18.18 289.88-17.25 288.85-15.5 287.82-13.75 287.82-11.4L287.82-11.4 287.82 0 282.43 0ZM311.17 0L311.17-22.95 316.47-22.95 316.52-18.75Q317.47-20.85 319.52-22.2 321.57-23.55 324.32-23.55L324.32-23.55Q327.87-23.55 329.77-22.08 331.67-20.6 332.32-17.95 332.97-15.3 332.97-11.05L332.97-11.05 332.97 0 327.57 0 327.57-10.9Q327.57-15.25 326.72-17.18 325.87-19.1 323.22-19.1L323.22-19.1Q321.72-19.1 320.17-18.18 318.62-17.25 317.6-15.5 316.57-13.75 316.57-11.4L316.57-11.4 316.57 0 311.17 0ZM350.77 0.5Q346.67 0.5 343.92-1.13 341.17-2.75 339.87-5.48 338.57-8.2 338.57-11.45L338.57-11.45Q338.57-15.1 340.1-17.85 341.62-20.6 344.32-22.08 347.02-23.55 350.42-23.55L350.42-23.55Q355.72-23.55 358.3-20.63 360.87-17.7 360.87-12.4L360.87-12.4Q360.87-11.05 360.72-9.6L360.72-9.6 344.22-9.6Q344.77-6.55 346.39-5.2 348.02-3.85 350.92-3.85L350.92-3.85Q353.32-3.85 354.87-4.25 356.42-4.65 357.72-5.35L357.72-5.35 359.37-1.5Q358.12-0.7 355.97-0.1 353.82 0.5 350.77 0.5L350.77 0.5ZM344.22-13.35L355.62-13.35Q355.67-16.45 354.27-17.73 352.87-19 350.27-19L350.27-19Q345.02-19 344.22-13.35L344.22-13.35ZM377.22 0.5Q373.82 0.5 371.09-0.98 368.37-2.45 366.77-5.23 365.17-8 365.17-11.75L365.17-11.75Q365.17-15.3 366.64-17.98 368.12-20.65 370.79-22.1 373.47-23.55 376.97-23.55L376.97-23.55Q379.62-23.55 381.54-22.88 383.47-22.2 384.57-21.2L384.57-21.2 382.17-16.85Q380.07-18.95 377.42-18.95L377.42-18.95Q374.22-18.95 372.54-17 370.87-15.05 370.87-11.8L370.87-11.8Q370.87-8.1 372.59-6.05 374.32-4 377.42-4L377.42-4Q378.97-4 380.44-4.45 381.92-4.9 382.72-5.5L382.72-5.5 384.67-1.7Q383.57-0.85 381.59-0.18 379.62 0.5 377.22 0.5L377.22 0.5ZM391.82 0L391.82-18.55 387.77-18.55 387.77-22.95 391.82-22.95 391.82-32.3 397.27-33.5 397.27-22.95 402.57-22.95 402.57-18.55 397.27-18.55 397.27 0 391.82 0ZM407.36 0L407.36-22.95 412.96-22.95 412.96 0 407.36 0ZM410.11-27.25Q408.56-27.25 407.51-28.3 406.46-29.35 406.46-30.9L406.46-30.9Q406.46-32.3 407.51-33.3 408.56-34.3 410.11-34.3L410.11-34.3Q411.61-34.3 412.66-33.3 413.71-32.3 413.71-30.9L413.71-30.9Q413.71-29.35 412.69-28.3 411.66-27.25 410.11-27.25L410.11-27.25ZM431.16 0.5Q427.61 0.5 424.86-1.1 422.11-2.7 420.61-5.45 419.11-8.2 419.11-11.55L419.11-11.55Q419.11-14.85 420.59-17.6 422.06-20.35 424.81-21.95 427.56-23.55 431.16-23.55L431.16-23.55Q434.76-23.55 437.49-21.95 440.21-20.35 441.69-17.6 443.16-14.85 443.16-11.55L443.16-11.55Q443.16-8.2 441.66-5.45 440.16-2.7 437.44-1.1 434.71 0.5 431.16 0.5L431.16 0.5ZM431.31-3.9Q434.21-3.9 435.89-6.05 437.56-8.2 437.56-11.45L437.56-11.45Q437.56-14.7 435.76-16.93 433.96-19.15 431.01-19.15L431.01-19.15Q428.16-19.15 426.44-16.95 424.71-14.75 424.71-11.45L424.71-11.45Q424.71-8.25 426.56-6.08 428.41-3.9 431.31-3.9L431.31-3.9ZM448.91 0L448.91-22.95 454.21-22.95 454.26-18.75Q455.21-20.85 457.26-22.2 459.31-23.55 462.06-23.55L462.06-23.55Q465.61-23.55 467.51-22.08 469.41-20.6 470.06-17.95 470.71-15.3 470.71-11.05L470.71-11.05 470.71 0 465.31 0 465.31-10.9Q465.31-15.25 464.46-17.18 463.61-19.1 460.96-19.1L460.96-19.1Q459.46-19.1 457.91-18.18 456.36-17.25 455.33-15.5 454.31-13.75 454.31-11.4L454.31-11.4 454.31 0 448.91 0ZM485.56 0.5Q483.16 0.5 480.58-0.13 478-0.75 476.91-1.6L476.91-1.6 478.71-5.85Q481.71-3.75 485.56-3.75L485.56-3.75Q489.41-3.75 489.41-6L489.41-6Q489.41-7 488.61-7.55 487.81-8.1 485.75-8.85L485.75-8.85 483.86-9.55Q480.86-10.75 479.11-12.43 477.36-14.1 477.36-16.85L477.36-16.85Q477.36-20 479.83-21.78 482.31-23.55 486.46-23.55L486.46-23.55Q488.5-23.55 490.48-23.1 492.46-22.65 493.5-21.95L493.5-21.95 491.56-17.65Q490.91-18.3 489.48-18.78 488.06-19.25 486.31-19.25L486.31-19.25Q482.75-19.25 482.75-17.1L482.75-17.1Q482.75-15.9 483.71-15.28 484.66-14.65 486.81-13.9L486.81-13.9Q487-13.85 488.36-13.35L488.36-13.35Q491.56-12.1 493.11-10.5 494.66-8.9 494.66-6.4L494.66-6.4Q494.66-3 492.08-1.25 489.5 0.5 485.56 0.5L485.56 0.5ZM514.65 0L514.65-18.65 510.95-18.65 510.95-22.95 514.65-22.95 514.65-27.9Q514.65-32.4 516.83-34.88 519-37.35 523.2-37.35L523.2-37.35Q524.9-37.35 527.05-36.4L527.05-36.4 526-31.3Q525.65-31.7 524.93-32.08 524.2-32.45 523.35-32.45L523.35-32.45Q520-32.45 519.95-28.1L519.95-28.1 519.95-22.95 525.35-22.95 525.35-18.65 519.95-18.65 519.95 0 514.65 0ZM541.3 0.5Q537.75 0.5 535-1.1 532.25-2.7 530.75-5.45 529.25-8.2 529.25-11.55L529.25-11.55Q529.25-14.85 530.72-17.6 532.2-20.35 534.95-21.95 537.7-23.55 541.3-23.55L541.3-23.55Q544.9-23.55 547.62-21.95 550.35-20.35 551.82-17.6 553.3-14.85 553.3-11.55L553.3-11.55Q553.3-8.2 551.8-5.45 550.3-2.7 547.57-1.1 544.85 0.5 541.3 0.5L541.3 0.5ZM541.45-3.9Q544.35-3.9 546.02-6.05 547.7-8.2 547.7-11.45L547.7-11.45Q547.7-14.7 545.9-16.93 544.1-19.15 541.15-19.15L541.15-19.15Q538.3-19.15 536.57-16.95 534.85-14.75 534.85-11.45L534.85-11.45Q534.85-8.25 536.7-6.08 538.55-3.9 541.45-3.9L541.45-3.9ZM558.89 0L558.89-22.95 564.29-22.95 564.29-18.45Q565.1-20.75 566.89-22.15 568.7-23.55 571-23.55L571-23.55Q572.6-23.55 573.2-23.25L573.2-23.25 572.45-17.8Q572-18.1 570.5-18.1L570.5-18.1Q568.14-18.1 566.22-16.6 564.29-15.1 564.29-11.8L564.29-11.8 564.29 0 558.89 0ZM601.84 0L601.84-36.75 607.49-36.75 607.49-5 618.04-5 618.04 0 601.84 0ZM623.48 0L623.48-22.95 629.08-22.95 629.08 0 623.48 0ZM626.23-27.25Q624.68-27.25 623.63-28.3 622.58-29.35 622.58-30.9L622.58-30.9Q622.58-32.3 623.63-33.3 624.68-34.3 626.23-34.3L626.23-34.3Q627.73-34.3 628.78-33.3 629.83-32.3 629.83-30.9L629.83-30.9Q629.83-29.35 628.81-28.3 627.78-27.25 626.23-27.25L626.23-27.25ZM638.73 0L638.73-18.65 635.03-18.65 635.03-22.95 638.73-22.95 638.73-27.9Q638.73-32.4 640.91-34.88 643.08-37.35 647.28-37.35L647.28-37.35Q648.98-37.35 651.13-36.4L651.13-36.4 650.08-31.3Q649.73-31.7 649.01-32.08 648.28-32.45 647.43-32.45L647.43-32.45Q644.08-32.45 644.03-28.1L644.03-28.1 644.03-22.95 649.43-22.95 649.43-18.65 644.03-18.65 644.03 0 638.73 0ZM665.53 0.5Q661.43 0.5 658.68-1.13 655.93-2.75 654.63-5.48 653.33-8.2 653.33-11.45L653.33-11.45Q653.33-15.1 654.85-17.85 656.38-20.6 659.08-22.08 661.78-23.55 665.18-23.55L665.18-23.55Q670.48-23.55 673.05-20.63 675.63-17.7 675.63-12.4L675.63-12.4Q675.63-11.05 675.48-9.6L675.48-9.6 658.98-9.6Q659.53-6.55 661.15-5.2 662.78-3.85 665.68-3.85L665.68-3.85Q668.08-3.85 669.63-4.25 671.18-4.65 672.48-5.35L672.48-5.35 674.13-1.5Q672.88-0.7 670.73-0.1 668.58 0.5 665.53 0.5L665.53 0.5ZM658.98-13.35L670.38-13.35Q670.43-16.45 669.03-17.73 667.63-19 665.03-19L665.03-19Q659.78-19 658.98-13.35L658.98-13.35ZM681.73 0L681.73-36.75 687.08-36.75 687.08 0 681.73 0ZM705.37 0.5Q701.82 0.5 699.07-1.1 696.32-2.7 694.82-5.45 693.32-8.2 693.32-11.55L693.32-11.55Q693.32-14.85 694.8-17.6 696.27-20.35 699.02-21.95 701.77-23.55 705.37-23.55L705.37-23.55Q708.97-23.55 711.7-21.95 714.42-20.35 715.9-17.6 717.37-14.85 717.37-11.55L717.37-11.55Q717.37-8.2 715.87-5.45 714.37-2.7 711.65-1.1 708.92 0.5 705.37 0.5L705.37 0.5ZM705.52-3.9Q708.42-3.9 710.1-6.05 711.77-8.2 711.77-11.45L711.77-11.45Q711.77-14.7 709.97-16.93 708.17-19.15 705.22-19.15L705.22-19.15Q702.37-19.15 700.65-16.95 698.92-14.75 698.92-11.45L698.92-11.45Q698.92-8.25 700.77-6.08 702.62-3.9 705.52-3.9L705.52-3.9ZM723.12 0L723.12-22.95 728.42-22.95 728.47-18.75Q729.42-20.85 731.47-22.2 733.52-23.55 736.27-23.55L736.27-23.55Q739.82-23.55 741.72-22.08 743.62-20.6 744.27-17.95 744.92-15.3 744.92-11.05L744.92-11.05 744.92 0 739.52 0 739.52-10.9Q739.52-15.25 738.67-17.18 737.82-19.1 735.17-19.1L735.17-19.1Q733.67-19.1 732.12-18.18 730.57-17.25 729.55-15.5 728.52-13.75 728.52-11.4L728.52-11.4 728.52 0 723.12 0ZM763.02 12Q760.47 12 757.99 11.3 755.52 10.6 754.47 10L754.47 10 755.67 5Q758.97 7.15 762.87 7.15L762.87 7.15Q765.87 7.15 767.92 5.7 769.97 4.25 770.02 0.05L770.02 0.05 770.02-4.05Q768.97-2.1 766.62-0.8 764.27 0.5 761.42 0.5L761.42 0.5Q758.42 0.5 755.92-0.98 753.42-2.45 751.97-5.2 750.52-7.95 750.52-11.6L750.52-11.6Q750.52-15.1 751.89-17.82 753.27-20.55 755.82-22.05 758.37-23.55 761.77-23.55L761.77-23.55Q763.77-23.55 765.52-22.85 767.27-22.15 768.49-21.13 769.72-20.1 770.12-19.1L770.12-19.1 770.22-22.95 775.32-22.95 775.32-0.15Q775.32 5.7 772.32 8.85 769.32 12 763.02 12L763.02 12ZM762.92-4.05Q765.77-4.05 767.72-6.03 769.67-8 769.67-11.2L769.67-11.2 769.67-11.55Q769.67-13.7 768.77-15.4 767.87-17.1 766.32-18.05 764.77-19 762.92-19L762.92-19Q759.72-19 757.97-16.93 756.22-14.85 756.22-11.55L756.22-11.55Q756.22-8.2 757.94-6.13 759.67-4.05 762.92-4.05L762.92-4.05ZM803.26 0.5Q800.26 0.5 797.31-0.55 794.36-1.6 793.06-2.9L793.06-2.9 795.71-7.65Q796.76-6.7 798.99-5.68 801.21-4.65 803.26-4.65L803.26-4.65Q805.91-4.65 807.59-5.9 809.26-7.15 809.26-9.35L809.26-9.35Q809.26-11.05 808.36-12.3 807.46-13.55 806.16-14.38 804.86-15.2 802.46-16.4L802.46-16.4Q799.61-17.8 798.56-18.5L798.56-18.5Q793.71-21.75 793.71-27.5L793.71-27.5Q793.71-32.25 796.86-34.77 800.01-37.3 804.81-37.3L804.81-37.3Q809.96-37.3 813.56-34.35L813.56-34.35 810.91-29.8Q809.96-30.8 808.24-31.53 806.51-32.25 804.56-32.25L804.56-32.25Q802.06-32.25 800.64-31.13 799.21-30 799.21-27.8L799.21-27.8Q799.21-26.25 800.11-25.03 801.01-23.8 802.39-22.9 803.76-22 806.11-20.7L806.11-20.7Q808.36-19.45 809.56-18.73 810.76-18 811.81-17L811.81-17Q813.26-15.7 814.16-13.9 815.06-12.1 815.06-9.95L815.06-9.95Q815.06-6.6 813.54-4.25 812.01-1.9 809.34-0.7 806.66 0.5 803.26 0.5L803.26 0.5ZM828.66 0.5Q823.91 0.5 822.14-2.3 820.36-5.1 820.36-10.1L820.36-10.1 820.36-22.95 825.76-22.95 825.76-11.45Q825.76-8.6 826.09-7.03 826.41-5.45 827.39-4.7 828.36-3.95 830.31-3.95L830.31-3.95Q831.71-3.95 833.01-4.75 834.31-5.55 835.14-6.93 835.96-8.3 835.96-9.95L835.96-9.95 835.96-22.95 841.31-22.95 841.31 0 836.91 0 836.31-3.35Q835.06-1.4 833.19-0.45 831.31 0.5 828.66 0.5L828.66 0.5ZM859.21 0.5Q855.81 0.5 853.08-0.98 850.36-2.45 848.76-5.23 847.16-8 847.16-11.75L847.16-11.75Q847.16-15.3 848.63-17.98 850.11-20.65 852.78-22.1 855.46-23.55 858.96-23.55L858.96-23.55Q861.61-23.55 863.53-22.88 865.46-22.2 866.56-21.2L866.56-21.2 864.16-16.85Q862.06-18.95 859.41-18.95L859.41-18.95Q856.21-18.95 854.53-17 852.86-15.05 852.86-11.8L852.86-11.8Q852.86-8.1 854.58-6.05 856.31-4 859.41-4L859.41-4Q860.96-4 862.43-4.45 863.91-4.9 864.71-5.5L864.71-5.5 866.66-1.7Q865.56-0.85 863.58-0.18 861.61 0.5 859.21 0.5L859.21 0.5ZM882.51 0.5Q879.11 0.5 876.38-0.98 873.66-2.45 872.06-5.23 870.46-8 870.46-11.75L870.46-11.75Q870.46-15.3 871.93-17.98 873.41-20.65 876.08-22.1 878.76-23.55 882.26-23.55L882.26-23.55Q884.91-23.55 886.83-22.88 888.76-22.2 889.86-21.2L889.86-21.2 887.46-16.85Q885.36-18.95 882.71-18.95L882.71-18.95Q879.51-18.95 877.83-17 876.16-15.05 876.16-11.8L876.16-11.8Q876.16-8.1 877.88-6.05 879.61-4 882.71-4L882.71-4Q884.26-4 885.73-4.45 887.21-4.9 888.01-5.5L888.01-5.5 889.96-1.7Q888.86-0.85 886.88-0.18 884.91 0.5 882.51 0.5L882.51 0.5ZM905.95 0.5Q901.85 0.5 899.1-1.13 896.35-2.75 895.05-5.48 893.75-8.2 893.75-11.45L893.75-11.45Q893.75-15.1 895.28-17.85 896.8-20.6 899.5-22.08 902.2-23.55 905.6-23.55L905.6-23.55Q910.9-23.55 913.48-20.63 916.05-17.7 916.05-12.4L916.05-12.4Q916.05-11.05 915.9-9.6L915.9-9.6 899.4-9.6Q899.95-6.55 901.58-5.2 903.2-3.85 906.1-3.85L906.1-3.85Q908.5-3.85 910.05-4.25 911.6-4.65 912.9-5.35L912.9-5.35 914.55-1.5Q913.3-0.7 911.15-0.1 909 0.5 905.95 0.5L905.95 0.5ZM899.4-13.35L910.8-13.35Q910.85-16.45 909.45-17.73 908.05-19 905.45-19L905.45-19Q900.2-19 899.4-13.35L899.4-13.35ZM929.6 0.5Q927.2 0.5 924.63-0.13 922.05-0.75 920.95-1.6L920.95-1.6 922.75-5.85Q925.75-3.75 929.6-3.75L929.6-3.75Q933.45-3.75 933.45-6L933.45-6Q933.45-7 932.65-7.55 931.85-8.1 929.8-8.85L929.8-8.85 927.9-9.55Q924.9-10.75 923.15-12.43 921.4-14.1 921.4-16.85L921.4-16.85Q921.4-20 923.88-21.78 926.35-23.55 930.5-23.55L930.5-23.55Q932.55-23.55 934.53-23.1 936.5-22.65 937.55-21.95L937.55-21.95 935.6-17.65Q934.95-18.3 933.53-18.78 932.1-19.25 930.35-19.25L930.35-19.25Q926.8-19.25 926.8-17.1L926.8-17.1Q926.8-15.9 927.75-15.28 928.7-14.65 930.85-13.9L930.85-13.9Q931.05-13.85 932.4-13.35L932.4-13.35Q935.6-12.1 937.15-10.5 938.7-8.9 938.7-6.4L938.7-6.4Q938.7-3 936.13-1.25 933.55 0.5 929.6 0.5L929.6 0.5ZM952.2 0.5Q949.8 0.5 947.22-0.13 944.65-0.75 943.55-1.6L943.55-1.6 945.35-5.85Q948.35-3.75 952.2-3.75L952.2-3.75Q956.05-3.75 956.05-6L956.05-6Q956.05-7 955.25-7.55 954.45-8.1 952.4-8.85L952.4-8.85 950.5-9.55Q947.5-10.75 945.75-12.43 944-14.1 944-16.85L944-16.85Q944-20 946.47-21.78 948.95-23.55 953.1-23.55L953.1-23.55Q955.15-23.55 957.12-23.1 959.1-22.65 960.15-21.95L960.15-21.95 958.2-17.65Q957.55-18.3 956.12-18.78 954.7-19.25 952.95-19.25L952.95-19.25Q949.4-19.25 949.4-17.1L949.4-17.1Q949.4-15.9 950.35-15.28 951.3-14.65 953.45-13.9L953.45-13.9Q953.65-13.85 955-13.35L955-13.35Q958.2-12.1 959.75-10.5 961.3-8.9 961.3-6.4L961.3-6.4Q961.3-3 958.72-1.25 956.15 0.5 952.2 0.5L952.2 0.5ZM970.6 0.5Q969.1 0.5 968.05-0.53 967-1.55 967-3.05L967-3.05Q967-4.6 968.02-5.63 969.05-6.65 970.6-6.65L970.6-6.65Q972.15-6.65 973.17-5.63 974.2-4.6 974.2-3.05L974.2-3.05Q974.2-1.55 973.17-0.53 972.15 0.5 970.6 0.5L970.6 0.5Z" opacity="1" transform="matrix(1,0,0,1,0,0)" fill="#ffffff" class="slogan-text-1" data-fill-palette-color="secondary" id="text-1"></path></svg></g></svg></g></svg></g></svg></g><g transform="matrix(1,0,0,1,118.36226563306418,0)"><svg viewBox="0 0 158.79546873387162 158.79546873387162" height="158.79546873387162" width="158.79546873387162"><g><svg></svg></g><g id="icon-0"><svg viewBox="0 0 158.79546873387162 158.79546873387162" height="158.79546873387162" width="158.79546873387162"><g><path d="M0 79.398c0-43.85 35.548-79.398 79.398-79.398 43.85 0 79.398 35.548 79.397 79.398 0 43.85-35.548 79.398-79.397 79.397-43.85 0-79.398-35.548-79.398-79.397zM79.398 154.936c41.719 0 75.538-33.82 75.538-75.538 0-41.719-33.82-75.538-75.538-75.539-41.719 0-75.538 33.82-75.539 75.539 0 41.719 33.82 75.538 75.539 75.538z" data-fill-palette-color="tertiary" fill="#ffffff" stroke="transparent"></path></g><g transform="matrix(1,0,0,1,31.958819688356712,36.702711156214626)"><svg viewBox="0 0 94.87782935715819 85.39004642144236" height="85.39004642144236" width="94.87782935715819"><g><svg xmlns:dc="http://purl.org/dc/elements/1.1/" xmlns:cc="http://creativecommons.org/ns#" xmlns:rdf="http://www.w3.org/1999/02/22-rdf-syntax-ns#" xmlns:svg="http://www.w3.org/2000/svg" xmlns="http://www.w3.org/2000/svg" xmlns:sodipodi="http://sodipodi.sourceforge.net/DTD/sodipodi-0.dtd" xmlns:inkscape="http://www.inkscape.org/namespaces/inkscape" xml:space="preserve" version="1.0" style="" viewBox="5 8.5 90 81" x="0" y="0" fill-rule="evenodd" height="85.39004642144236" width="94.87782935715819" class="icon-dxe-0" data-fill-palette-color="accent" id="dxe-0"><path d="M11.796 8.5C15.544 8.5 18.592 11.902 18.592 16.155 18.592 20.357 15.544 23.809 11.796 23.809S5 20.407 5 16.155C5 11.952 8.048 8.5 11.796 8.5" fill="#ffffff" data-fill-palette-color="accent"></path><path d="M7.399 62.333V86.098C7.399 87.949 8.948 89.5 10.797 89.5H12.846C14.695 89.5 16.244 87.949 16.244 86.098V62.333H18.592V38.57L22.79 42.77C23.59 43.571 24.74 43.871 25.788 43.721H26.038C26.338 43.672 26.638 43.522 26.938 43.372L38.68 36.568C40.281 35.617 40.831 33.565 39.931 31.914 38.98 30.314 36.932 29.764 35.283 30.664L25.788 36.167 17.343 27.862C15.844 26.412 14.095 25.06 11.846 25.06 8.098 25.06 5.05 28.112 5.05 31.864V62.384H7.399z" fill="#ffffff" data-fill-palette-color="accent"></path><path d="M59.17 42.671L71.363 39.42 77.26 33.515 77.21 33.165C76.66 29.463 79.259 26.011 82.957 25.46 86.655 24.91 90.103 27.512 90.652 31.214L95 61.433 92.701 61.783V86.098C92.701 87.949 91.152 89.5 89.303 89.5H87.254C85.405 89.5 83.856 87.949 83.856 86.098V63.084L81.557 63.434 78.46 41.92 75.811 44.572C75.36 45.122 74.76 45.522 74.06 45.723L60.92 49.225C59.119 49.725 57.27 48.625 56.77 46.824S57.371 43.17 59.17 42.67" fill="#ffffff" data-fill-palette-color="accent"></path><path d="M78.61 9.4C74.86 9.4 71.812 12.804 71.812 17.056 71.813 21.258 74.86 24.71 78.609 24.71S85.405 21.308 85.405 17.055C85.405 12.853 82.357 9.401 78.61 9.401" fill="#ffffff" data-fill-palette-color="accent"></path><rect class="" x="38.631317" y="66.836006" width="22.587452" height="22.613958" rx="4.4975014" ry="4.502779" fill="#ffffff" data-fill-palette-color="accent"></rect><path class="" d="M43.129 41.97H56.67C57.021 41.97 57.321 42.02 57.671 42.07 56.02 43.072 55.122 45.124 55.67 47.075 56.322 49.475 58.822 50.926 61.22 50.276V60.032C61.219 62.533 59.169 64.535 56.72 64.535H43.18C40.68 64.535 38.68 62.483 38.68 60.032V46.473C38.681 43.972 40.731 41.971 43.18 41.971z" fill="#ffffff" data-fill-palette-color="accent"></path><path class="" d="M27.388 22.459L39.08 15.554C41.23 14.304 44.028 15.004 45.278 17.155L52.174 28.863C53.424 31.013 52.724 33.816 50.574 35.066L38.882 41.971C36.932 43.12 34.534 42.62 33.134 40.97L39.231 37.468C41.38 36.218 42.129 33.415 40.881 31.264 39.63 29.113 36.831 28.362 34.683 29.613L28.487 33.215 25.838 28.662C24.59 26.512 25.288 23.71 27.438 22.46z" fill="#ffffff" data-fill-palette-color="accent"></path></svg></g></svg></g></svg></g></svg></g><g></g></svg></g><defs></defs></svg><rect width="395.52" height="243.55174094449072" fill="none" stroke="none" visibility="hidden"></rect></g></svg></g></svg>